<?xml version="1.0" encoding="utf8" standalone="no"?>
<svg viewBox="0 0 125 125" xmlns="http://www.w3.org/2000/svg" xmlns:xlink="http://www.w3.org/1999/xlink">
<defs>
<linearGradient id="linearGradient10794">
<stop offset="0" stop-color="#989898"/>
<stop offset="1" stop-color="#989898" stop-opacity="0"/>
</linearGradient>
<linearGradient id="linearGradient10023">
<stop offset="0" stop-color="#bdbdbd"/>
<stop offset="1" stop-color="#bdbdbd" stop-opacity="0"/>
</linearGradient>
<linearGradient gradientUnits="userSpaceOnUse" id="linearGradient10823" x1="100.12063" x2="98.8086" xlink:href="#linearGradient10023" y1="11.13553" y2="128.85977"/>
<linearGradient gradientUnits="userSpaceOnUse" id="linearGradient10826" x2="0" xlink:href="#linearGradient10794" y1="13.87885" y2="137.20902"/>
<linearGradient gradientUnits="userSpaceOnUse" id="linearGradient10829" x1="87.52971" x2="86.18027" xlink:href="#linearGradient10023" y1="8.22853" y2="31.31475"/>
<radialGradient cx="16.8865" cy="97.80959" gradientTransform="matrix(.5073,2.99206,-2.50303,.62902,307.6498,-19.14050)" gradientUnits="userSpaceOnUse" id="radialGradient10832" r="7.39504" xlink:href="#linearGradient10794"/>
<radialGradient cx="16.07373" cy="98.38502" gradientTransform="matrix(2.27765,1.81448,-1.55469,2.3139,142.4194,-168.8005)" gradientUnits="userSpaceOnUse" id="radialGradient10835" r="7.39504" xlink:href="#linearGradient10794"/>
</defs>
<path d="m99.63112,12.08878c-.51961-.15202-1.15306-.05014-1.9375.40625-5.51579,3.06072-11.9452,3.57722-16.65625,4.125-4.6616.54203-8.40462.69604-13,.5-4.22775-.18035-6.9841-.40518-9.46875-.875-1.79084-.33863-4.1738-1.51403-5.21875-.40625 2.93768,6.7609 4.05974,16.22353 3.90625,21.46875-.28735,9.73523-1.2821,16.83377-2.71875,25.0625-1.4017,8.02852-4.19047,15.29478-6.75,22.8125-1.84334,5.99361-5.7294.00805-8.5-1.21875-3.99317-1.76815-7.50805-1.88972-11.375,0s-6.03068,4.67659-7,9.0625c-.94752,4.28728 1.244,9.59833 4.8125,12.5 3.466,2.81833 8.59262,3.19681 12.75,1.875 4.1031-1.42098 7.8032-5.29276 9.34375-9.3125 .78874-1.86944 1.2535-2.69673 2.1875-5.65625s2.18036-7.29659 3.21875-11c1.91102-6.81566 4.56287-13.02613 6.21875-28.375 .50807-4.13336 2.01254-17.3049.78125-25.375 6.39001.46748 8.92549.51079 11.73398.55611 4.82295.07646 10.78936-.53332 14.32545-1.13151 4.36944-.73916 10.16676-2.30504 12.94057-2.80262 .6694,2.63878.74993,4.05477 1.0625,7.78427 .47731,5.69493.30978,16.00637-.15625,20.65625-.79979,7.98002-2.98658,21.3956-5.15625,29.0625-1.09411,3.86623-2.25871,6.78981-3.46875,9.96875-1.59997,2.88808-5.25088-1.87242-7.65625-2.9375-3.99317-1.76814-7.50805-1.92098-11.375-.03125s-6.06194,4.70783-7.03125,9.09375c-.94752,4.28728 1.244,9.56708 4.8125,12.46875 3.466,2.81833 8.59262,3.19681 12.75,1.875 4.1031-1.42098 7.8032-5.29275 9.34375-9.3125 4.17314-11.23816 6.3922-19.50108 7.4375-23.78125 1.45196-5.94533 4.20644-18.91295 4.5-35.15625 .05493-3.0393.05154-11.363-.625-18.1875-.25687-2.59116-2.4724-13.26269-4.03125-13.71875z"/>
<path d="m35.50037,98.29233c-4.17423,3.75954-9.83582,4.21185-12.63747,1.00961s-1.68767-8.85237 2.48656-12.61191 9.83582-4.21185 12.63747-1.00961c2.79203,3.19124 1.69893,8.8113-2.44585,12.57509" fill="url(#radialGradient10835)"/>
<path d="m80.04916,103.00369c-4.17423,3.75954-9.83582,4.21185-12.63747,1.00962s-1.68767-8.85238 2.48656-12.61192 9.83582-4.21185 12.63747-1.00961c2.79203,3.19124 1.69893,8.8113-2.44585,12.57509" fill="url(#radialGradient10832)"/>
<path d="m98.88947,12.80753c-.24299.04913-.52467.17118-.875.375-5.65695,3.13905-12.1823,3.64185-16.875,4.1875-4.68417.54466-8.47239.69714-13.09375.5-1.48187-.06321-2.60344-.13568-3.78125-.21875 4.41229,2.27221 8.65858,3.41617 12.91229,4.39614 11.56354,2.66401 17.17518.94305 25.18146.29136-.3651-1.9114-.80923-4.13491-1.34375-6-.29658-1.03485-.60864-1.94558-.90625-2.59375-.1488-.32409-.31691-.55814-.4375-.71875s-.19649-.19927-.15625-.1875c-.16655-.04873-.38201-.08038-.625-.03125z" fill="url(#linearGradient10829)"/>
<path d="m55.25612,15.80753c-.29495-.02063-.56658-.00627-.9375.03125-.24914.02521-.37918.11756-.53125.21875 2.87209,6.82573 3.96564,16.04804 3.8125,21.28125-.288,9.7574-1.28073,16.88845-2.71875,25.125-1.40821,8.06581-4.10235,15.21954-6.65625,22.71875 .36566-.3503 1.31846-2.04725 1.80964-3.55654 2.54278-7.81335 4.33063-11.07401 6.72161-26.03721-.00039-.01041-.00039-.02084 0-.03125l.0625-.25c.00164-.01041-.00164-.02084 0-.03125 2.30448-14.63608 2.33534-27.42461-.71875-39.28125-.31883-.08182-.60877-.17107-.84375-.1875z" fill="url(#linearGradient10826)"/>
<path d="m99.88414,24.8576-.03125.03125h-.03125l-.03125.03125c-.00109.01039-.00109.02086 0,.03125l-.03125.03125c-.00109.01039-.00109.02086 0,.03125s-.00109.02086 0,.03125c.46148,2.0765.60373,3.63832.875,6.875 .47909,5.71624.31197,16.04706-.15625,20.71875-.80104,7.99248-2.98035,21.40484-5.15625,29.09375-1.0134,3.58103-2.04497,6.34294-3.15625,9.25l-.03125.03125c-.00109.01039-.00109.02086 0,.03125s-.00109.02086 0,.03125l.03125.03125c-.00109.01039-.00109.02086 0,.03125l.03125.03125h.03125l.03125.03125h.03125 .03125l.03125-.03125h.03125l.03125-.03125c.46367-.62962 1.11368-1.6097 1.78125-3.4375 1.61625-4.4253 4.10086-13.80835 6.17809-28.07725l.03125-.28125c.96117-7.04934 1.26523-14.43539 1.10316-22.04775-.08102-3.80584-.2852-7.17127-.65625-9.5-.18558-1.16474-.43777-2.07914-.6875-2.65625-.02704-.0625-.03829-.09542-.0625-.125s-.04911-.03892-.0625-.0625c.0011-.01039.0011-.02086 0-.03125l-.03125-.03125h-.03125l-.03125-.03125h-.03125-.03125z" fill="url(#linearGradient10823)"/>
</svg>
